<svg width="179" height="204" viewBox="0 0 179 204" fill="none" xmlns="http://www.w3.org/2000/svg">
<path d="M2 44.4405C5.03881 29.8599 14.6732 20.0597 25.8013 11.4135C29.1766 8.79098 31.5418 3.76238 36.0646 2.59107C40.1086 1.54368 44.0833 2.00966 48.0743 3.04331C54.6012 4.7339 56.7967 7.06508 58.3372 13.4494C58.4942 14.0988 59.296 15.9869 58.9922 16.6164C58.59 17.4496 54.4067 19.046 54.4067 19.1046C54.4067 19.1343 56.2287 20.7732 56.3719 21.3667C59.4271 34.0262 41.6314 12.6015 39.5582 13.6754C27.2846 20.0329 32.1451 36.2884 22.5261 43.762" stroke="#EBB42C" stroke-width="3.924" stroke-linecap="round" stroke-linejoin="round"/>
<path d="M2 44.4406C2.07913 56.7024 14.2295 55.5824 17.0672 57.7874C21.3901 61.1463 23.5692 66.7854 27.1116 70.4554C30.1419 73.5946 38.7878 72.8006 42.8335 73.8486C43.5097 74.0445 43.1072 73.919 44.0345 74.2489" stroke="#EBB42C" stroke-width="3.924" stroke-linecap="round" stroke-linejoin="round"/>
<path d="M26.4567 40.3095C32.1154 39.5149 40.053 37.5614 44.2141 43.0854C44.802 43.8414 45.1993 44.7204 45.5862 45.5968" stroke="#EBB42C" stroke-width="3.924" stroke-linecap="round" stroke-linejoin="round"/>
<path d="M44.1438 74.4679C45.2353 85.927 63.5349 106.141 65.543 116.544C66.1839 119.862 65.1065 124.036 65.1065 127.628C65.1065 129.64 66.4439 132.266 65.9799 134.189C65.0434 138.069 61.929 140.99 59.6475 144.142C56.3857 148.647 55.5322 155.121 53.9701 159.977" stroke="#EBB42C" stroke-width="3.924" stroke-linecap="round" stroke-linejoin="round"/>
<path d="M133.89 48.0008C124.93 43.5814 112.699 45.3508 103.756 52.2989" stroke="#EBB42C" stroke-width="3.924" stroke-linecap="round" stroke-linejoin="round"/>
<path d="M134.108 48.0009C135.708 41.6835 145.654 37.9201 151.141 40.7621" stroke="#EBB42C" stroke-width="3.924" stroke-linecap="round" stroke-linejoin="round"/>
<path d="M135.2 15.6525C146.146 16.6766 145.487 32.2072 150.049 40.0836" stroke="#EBB42C" stroke-width="3.924" stroke-linecap="round" stroke-linejoin="round"/>
<path d="M116.818 8.63953C115.555 11.4148 113.653 17.7452 117.037 19.4979" stroke="#EBB42C" stroke-width="3.924" stroke-linecap="round" stroke-linejoin="round"/>
<path d="M135.379 15.6525C132.561 16.0625 133.657 19.3456 132.54 21.0816C131.127 23.2781 127.394 21.5097 125.553 21.9865C123.696 22.4671 122.386 25.1816 120.53 24.7009C117.38 23.885 117.534 20.7144 117.037 18.1406" stroke="#EBB42C" stroke-width="3.924" stroke-linecap="round" stroke-linejoin="round"/>
<path d="M117.076 114.734C118.416 122.253 115.904 130.463 117.731 138.034C118.244 140.157 120.238 142.025 121.444 143.69C124.329 147.675 125.454 156.173 126.247 161.108" stroke="#EBB42C" stroke-width="3.924" stroke-linecap="round" stroke-linejoin="round"/>
<path d="M134.982 78.0875H134.764" stroke="#EBB42C" stroke-width="3.924" stroke-linecap="round" stroke-linejoin="round"/>
<path d="M134.764 77.8612C134.308 92.395 121.267 102.841 117.076 115.865" stroke="#EBB42C" stroke-width="3.924" stroke-linecap="round" stroke-linejoin="round"/>
<path d="M126.248 82.3856C131.863 79.4368 136.92 77.1396 139.349 70.8488" stroke="#EBB42C" stroke-width="3.924" stroke-linecap="round" stroke-linejoin="round"/>
<path d="M135.637 76.9564C146.318 77.7321 151.613 68.9142 157.255 61.1215" stroke="#EBB42C" stroke-width="3.924" stroke-linecap="round" stroke-linejoin="round"/>
<path d="M157.531 61.1214C164.383 56.1694 173.02 51.6639 176.091 42.1195C176.654 39.4021 174.134 35.9483 172.749 33.9716C170.774 31.1522 168.523 28.5316 166.132 26.0857C163.825 23.4677 161.129 21.2997 158.168 19.5408" stroke="#EBB42C" stroke-width="3.924" stroke-linecap="round" stroke-linejoin="round"/>
<path d="M116.858 7.05623C118.357 3.81206 121.868 4.17503 124.719 3.43667C139.717 -0.447765 146.437 13.3291 158.347 19.4979" stroke="#EBB42C" stroke-width="3.924" stroke-linecap="round" stroke-linejoin="round"/>
<path d="M46.0809 45.949C56.3922 41.2556 71.8109 41.3115 79.9957 52.6168" stroke="#EBB42C" stroke-width="3.924" stroke-linecap="round" stroke-linejoin="round"/>
<path d="M44.3128 74.3716C40.9565 72.5894 37.884 70.1935 35.9442 66.7861" stroke="#EBB42C" stroke-width="3.924" stroke-linecap="round" stroke-linejoin="round"/>
<path d="M42.8744 73.5648C46.0123 75.1249 49.3745 75.9241 53.1242 75.9241" stroke="#EBB42C" stroke-width="3.924" stroke-linecap="round" stroke-linejoin="round"/>
<path d="M91.7184 59.1378C83.3407 59.2774 76.4187 50.9707 76.2575 40.5838C76.096 30.1973 82.7566 21.6639 91.1341 21.5243C99.5115 21.3847 106.434 29.6915 106.595 40.0783C106.756 50.4648 100.096 58.9982 91.7184 59.1378Z" stroke="#EBB42C" stroke-width="3.924"/>
<path d="M26.411 197.352C27.1416 197.327 27.6605 197.228 27.9677 197.053C28.441 196.788 28.6776 196.29 28.6776 195.559V183.217C28.6776 182.478 28.4452 181.98 27.9802 181.722C27.6979 181.565 27.1748 181.461 26.411 181.411V180.764H40.8702V185.907H40.2475C39.932 184.321 39.4006 183.213 38.6534 182.582C37.9061 181.943 36.5279 181.623 34.5186 181.623C33.7714 181.623 33.294 181.71 33.0864 181.884C32.8871 182.05 32.7875 182.366 32.7875 182.831V188.734C34.1657 188.759 35.0956 188.468 35.5772 187.862C36.0671 187.256 36.4365 186.289 36.6856 184.961H37.3332V193.579H36.6856C36.5113 192.201 36.1584 191.196 35.627 190.565C35.1039 189.934 34.1574 189.618 32.7875 189.618V195.559C32.7875 196.348 33.0158 196.85 33.4725 197.066C33.9374 197.274 34.6431 197.369 35.5897 197.352V198H26.411V197.352ZM49.4003 197.352C50.1226 197.336 50.6415 197.249 50.957 197.091C51.4718 196.825 51.7292 196.315 51.7292 195.559V183.217C51.7292 182.461 51.4842 181.955 50.9944 181.698C50.6955 181.54 50.1641 181.444 49.4003 181.411V180.764H58.3174V181.411C57.5203 181.444 56.9724 181.536 56.6735 181.685C56.1753 181.943 55.9262 182.453 55.9262 183.217V195.559C55.9262 196.273 56.1255 196.75 56.524 196.991C56.9225 197.232 57.5203 197.352 58.3174 197.352V198H49.4003V197.352ZM67.2584 189.531C67.2584 186.991 68.0763 184.853 69.7119 183.117C71.4057 181.332 73.5685 180.44 76.2005 180.44C77.2549 180.44 78.3052 180.639 79.3514 181.038C80.3975 181.428 81.0493 181.623 81.3067 181.623C81.5807 181.623 81.8007 181.527 81.9667 181.336C82.1328 181.145 82.2698 180.855 82.3777 180.465H83.0876V186.43H82.44C81.8256 185.135 81.1987 184.114 80.5594 183.366C79.3638 181.988 78.0105 181.299 76.4994 181.299C74.8554 181.299 73.6557 182.013 72.9002 183.441C72.1446 184.869 71.7668 186.878 71.7668 189.469C71.7668 191.594 72.1155 193.492 72.813 195.16C73.5187 196.821 74.8762 197.651 76.8855 197.651C77.9731 197.651 78.7038 197.423 79.0774 196.966C79.2933 196.709 79.4012 196.319 79.4012 195.796V193.106C79.4012 192.333 79.1646 191.827 78.6913 191.586C78.3841 191.437 77.7614 191.354 76.8232 191.337V190.689H85.566V191.337C84.6859 191.37 84.1005 191.549 83.8099 191.873C83.5277 192.188 83.3865 192.786 83.3865 193.666V196.916C82.8219 197.265 81.9086 197.614 80.6466 197.963C79.3846 198.311 77.9731 198.486 76.4122 198.486C73.581 198.486 71.3185 197.593 69.6247 195.808C68.0472 194.139 67.2584 192.047 67.2584 189.531ZM93.9839 198V197.352C94.7146 197.327 95.2335 197.228 95.5407 197.053C96.014 196.788 96.2506 196.29 96.2506 195.559V183.217C96.2506 182.47 96.0057 181.967 95.5158 181.71C95.2335 181.552 94.7229 181.453 93.9839 181.411V180.764H108.68V185.907H108.057C107.733 184.263 107.181 183.138 106.401 182.532C105.629 181.926 104.217 181.623 102.166 181.623C101.386 181.623 100.888 181.706 100.672 181.872C100.464 182.03 100.36 182.349 100.36 182.831V188.734C101.813 188.751 102.797 188.489 103.312 187.95C103.827 187.402 104.221 186.405 104.495 184.961H105.143V193.579H104.495C104.313 192.126 103.939 191.105 103.374 190.515C102.818 189.917 101.813 189.618 100.36 189.618V195.796C100.36 196.335 100.497 196.705 100.771 196.904C101.054 197.095 101.627 197.19 102.49 197.19C104.117 197.19 105.446 196.875 106.475 196.244C107.505 195.613 108.418 194.43 109.215 192.695H109.925L108.892 198H93.9839ZM118.393 197.352C119.256 197.311 119.846 197.149 120.161 196.867C120.477 196.584 120.635 195.97 120.635 195.023V183.753C120.635 182.764 120.448 182.121 120.074 181.822C119.825 181.623 119.265 181.486 118.393 181.411V180.764H126.6C128.302 180.764 129.681 180.942 130.735 181.299C132.777 182.021 133.799 183.321 133.799 185.197C133.799 186.584 133.288 187.676 132.267 188.473C131.486 189.07 130.66 189.452 129.788 189.618L134.92 196.879C135.061 197.078 135.21 197.211 135.368 197.278C135.526 197.336 135.721 197.373 135.953 197.39V198H130.735L125.442 190.029H124.769V195.023C124.769 195.92 124.919 196.526 125.218 196.842C125.517 197.149 126.115 197.319 127.011 197.352V198H118.393V197.352ZM124.769 189.207C126.438 189.182 127.63 188.95 128.344 188.51C129.066 188.062 129.427 187.032 129.427 185.421C129.427 184.433 129.29 183.653 129.016 183.08C128.543 182.109 127.68 181.623 126.426 181.623C125.745 181.623 125.297 181.71 125.081 181.884C124.873 182.05 124.769 182.329 124.769 182.719V189.207ZM144.222 198V197.352C144.952 197.327 145.471 197.228 145.779 197.053C146.252 196.788 146.488 196.29 146.488 195.559V183.217C146.488 182.47 146.244 181.967 145.754 181.71C145.471 181.552 144.961 181.453 144.222 181.411V180.764H158.918V185.907H158.295C157.971 184.263 157.419 183.138 156.639 182.532C155.866 181.926 154.455 181.623 152.404 181.623C151.624 181.623 151.126 181.706 150.91 181.872C150.702 182.03 150.598 182.349 150.598 182.831V188.734C152.051 188.751 153.035 188.489 153.55 187.95C154.065 187.402 154.459 186.405 154.733 184.961H155.381V193.579H154.733C154.55 192.126 154.177 191.105 153.612 190.515C153.056 189.917 152.051 189.618 150.598 189.618V195.796C150.598 196.335 150.735 196.705 151.009 196.904C151.292 197.095 151.864 197.19 152.728 197.19C154.355 197.19 155.684 196.875 156.713 196.244C157.743 195.613 158.656 194.43 159.453 192.695H160.163L159.129 198H144.222Z" fill="#EBB42C"/>
</svg>
