<svg width="149" height="195" viewBox="0 0 149 195" fill="none" xmlns="http://www.w3.org/2000/svg">
<path d="M58.5935 44.2304C48.9503 44.3837 40.9823 35.2545 40.7965 23.8393C40.6108 12.4244 48.2776 3.04634 57.9209 2.89265C67.5644 2.73929 75.5324 11.8685 75.7182 23.2837C75.9036 34.6986 68.2367 44.0767 58.5935 44.2304Z" stroke="#EBB42C" stroke-width="3.924"/>
<path d="M46.1014 42.733C40.3753 45.2689 34.7401 51.135 33.6885 56.2296" stroke="#EBB42C" stroke-width="3.924" stroke-linecap="round" stroke-linejoin="round"/>
<path d="M73.8071 39.3378C78.5342 41.7409 82.971 44.2902 85.6955 48.5827" stroke="#EBB42C" stroke-width="3.924" stroke-linecap="round" stroke-linejoin="round"/>
<path d="M33.6885 56.5039C19.7537 54.5459 12.6689 63.1548 12.6689 79.3158" stroke="#EBB42C" stroke-width="3.924" stroke-linecap="round" stroke-linejoin="round"/>
<path d="M10.7334 77.1779C0.260872 80.1764 0.125495 122.024 8.04347 125.804C11.9802 127.683 15.0409 131.113 18.9829 132.995C32.4926 139.444 39.1055 138.988 53.7738 138.988" stroke="#EBB42C" stroke-width="3.924" stroke-linecap="round" stroke-linejoin="round"/>
<path d="M39.0683 85.7388C42.1467 94.7695 43.1068 103.683 37.813 112.106" stroke="#EBB42C" stroke-width="3.924" stroke-linecap="round" stroke-linejoin="round"/>
<path d="M28.5452 108.644C35.0688 109.77 36.1067 117.105 41.0496 120.287C45.0829 122.883 50.826 123.234 54.6705 125.461" stroke="#EBB42C" stroke-width="3.924" stroke-linecap="round" stroke-linejoin="round"/>
<path d="M46.9591 70.2435C46.7319 77.123 41.4171 84.3817 33.6885 87.2132" stroke="#EBB42C" stroke-width="3.924" stroke-linecap="round" stroke-linejoin="round"/>
<path d="M70.2725 60.9119C65.2665 58.4395 57.9973 57.2848 51.9805 59.1998" stroke="#EBB42C" stroke-width="3.924" stroke-linecap="round" stroke-linejoin="round"/>
<path d="M70.4521 61.4256C71.1781 56.485 75.1783 53.7964 79.9567 53.0358" stroke="#EBB42C" stroke-width="3.924" stroke-linecap="round" stroke-linejoin="round"/>
<path d="M72.9625 67.4182C77.2495 77.4077 78.7664 83.933 72.2454 93.2725C71.304 94.6204 69.8069 96.3953 68.1206 97.0392" stroke="#EBB42C" stroke-width="3.924" stroke-linecap="round" stroke-linejoin="round"/>
<path d="M93.2273 59.3711C94.086 64.8297 97.9152 68.7959 103.27 70.5002" stroke="#EBB42C" stroke-width="3.924" stroke-linecap="round" stroke-linejoin="round"/>
<path d="M86.9509 49.6115C101.644 51.1372 121.772 54.2061 118.872 73.5822" stroke="#EBB42C" stroke-width="3.924" stroke-linecap="round" stroke-linejoin="round"/>
<path d="M97.7108 70.8427C103.99 79.7406 97.029 93.9573 85.6956 93.9573" stroke="#EBB42C" stroke-width="3.924" stroke-linecap="round" stroke-linejoin="round"/>
<path d="M77.446 81.6294C79.1942 86.2659 80.5493 91.1464 85.1574 93.786" stroke="#EBB42C" stroke-width="3.924" stroke-linecap="round" stroke-linejoin="round"/>
<path d="M117.409 73.5822C131.85 83.8313 122.417 111.474 111.822 121.589C105.373 127.746 94.0712 130.312 85.1572 132.014" stroke="#EBB42C" stroke-width="3.924" stroke-linecap="round" stroke-linejoin="round"/>
<path d="M111.199 94.8866C98.454 101.919 92.1985 116.394 76.6624 120.102" stroke="#EBB42C" stroke-width="3.924" stroke-linecap="round" stroke-linejoin="round"/>
<path d="M75.8135 120.231C64.652 118.742 56.2373 130.556 58.3147 133.986C60.4102 137.446 66.1742 139.767 69.9481 141.288C71.6989 141.993 75.9986 134.262 76.7337 133.44C79.9958 129.795 86.2749 132.718 90.0007 131.533" stroke="#EBB42C" stroke-width="3.924" stroke-linecap="round" stroke-linejoin="round"/>
<path d="M53.686 138.754C54.944 139.035 57.0963 138.702 58.5109 138.026" stroke="#EBB42C" stroke-width="3.924" stroke-linecap="round" stroke-linejoin="round"/>
<path d="M78.0653 132.935C79.9649 133.502 80.5028 135.165 81.3667 136.814C82.1231 138.259 80.7271 139.858 80.3507 140.936C77.1144 150.205 63.2591 140.862 59.2729 137.057" stroke="#EBB42C" stroke-width="3.924" stroke-linecap="round" stroke-linejoin="round"/>
<path d="M68.1611 97.0514C65.6877 97.7927 56.5981 99.6536 53.6861 98.2636C51.8271 97.3761 50.9357 96.2234 49.115 95.3542" stroke="#EBB42C" stroke-width="3.924" stroke-linecap="round" stroke-linejoin="round"/>
<path d="M82.8901 99.7184C82.7345 104.474 84.117 111.063 90.0007 109.659" stroke="#EBB42C" stroke-width="3.924" stroke-linecap="round" stroke-linejoin="round"/>
<path d="M28.5451 140.208C25.8068 143.619 25.623 150.87 26.7675 155.241" stroke="#EBB42C" stroke-width="3.924" stroke-linecap="round" stroke-linejoin="round"/>
<path d="M85.176 132.935C78.6608 139.11 83.2326 150.56 86.1916 156.211" stroke="#EBB42C" stroke-width="3.924" stroke-linecap="round" stroke-linejoin="round"/>
<path d="M83.8656 106.879C79.0531 113.475 70.3006 105.746 64.1965 111.574" stroke="#EBB42C" stroke-width="3.924" stroke-linecap="round" stroke-linejoin="round"/>
<path d="M93.8967 90.7955C89.9426 96.4445 94.4454 103.377 91.5989 109.719" stroke="#EBB42C" stroke-width="3.924" stroke-linecap="round" stroke-linejoin="round"/>
<path d="M92.52 92.4688C92.9621 96.4313 95.2828 100.103 99.0162 101.631" stroke="#EBB42C" stroke-width="3.924" stroke-linecap="round" stroke-linejoin="round"/>
<path d="M56.3894 124.329C49.7575 115.681 56.3894 113.445 56.3894 110.987C56.3894 110.121 53.6488 108.587 53.8941 107.651C54.6704 104.685 59.6081 101.243 61.8797 99.0739" stroke="#EBB42C" stroke-width="3.924" stroke-linecap="round" stroke-linejoin="round"/>
<path d="M0.410985 188.352C1.14163 188.327 1.66055 188.228 1.96775 188.053C2.441 187.788 2.67763 187.29 2.67763 186.559V174.217C2.67763 173.478 2.44516 172.98 1.9802 172.722C1.69791 172.565 1.17484 172.461 0.410985 172.411V171.764H14.8702V176.907H14.2475C13.932 175.321 13.4006 174.213 12.6534 173.582C11.9061 172.943 10.5279 172.623 8.51861 172.623C7.77136 172.623 7.29395 172.71 7.08638 172.884C6.88712 173.05 6.78748 173.366 6.78748 173.831V179.734C8.16574 179.759 9.09565 179.468 9.5772 178.862C10.0671 178.256 10.4365 177.289 10.6856 175.961H11.3332V184.579H10.6856C10.5113 183.201 10.1584 182.196 9.62702 181.565C9.10395 180.934 8.15744 180.618 6.78748 180.618V186.559C6.78748 187.348 7.01581 187.85 7.47246 188.066C7.93741 188.274 8.64315 188.369 9.58966 188.352V189H0.410985V188.352ZM23.4003 188.352C24.1226 188.336 24.6415 188.249 24.957 188.091C25.4718 187.825 25.7292 187.315 25.7292 186.559V174.217C25.7292 173.461 25.4842 172.955 24.9944 172.698C24.6955 172.54 24.1641 172.444 23.4003 172.411V171.764H32.3174V172.411C31.5203 172.444 30.9724 172.536 30.6735 172.685C30.1753 172.943 29.9262 173.453 29.9262 174.217V186.559C29.9262 187.273 30.1255 187.75 30.524 187.991C30.9225 188.232 31.5203 188.352 32.3174 188.352V189H23.4003V188.352ZM41.2584 180.531C41.2584 177.991 42.0763 175.853 43.7119 174.117C45.4057 172.332 47.5685 171.44 50.2005 171.44C51.2549 171.44 52.3052 171.639 53.3514 172.038C54.3975 172.428 55.0493 172.623 55.3067 172.623C55.5807 172.623 55.8007 172.527 55.9667 172.336C56.1328 172.145 56.2698 171.855 56.3777 171.465H57.0876V177.43H56.44C55.8256 176.135 55.1987 175.114 54.5594 174.366C53.3638 172.988 52.0105 172.299 50.4994 172.299C48.8554 172.299 47.6557 173.013 46.9002 174.441C46.1446 175.869 45.7668 177.878 45.7668 180.469C45.7668 182.594 46.1155 184.492 46.813 186.16C47.5187 187.821 48.8762 188.651 50.8855 188.651C51.9731 188.651 52.7038 188.423 53.0774 187.966C53.2933 187.709 53.4012 187.319 53.4012 186.796V184.106C53.4012 183.333 53.1646 182.827 52.6913 182.586C52.3841 182.437 51.7614 182.354 50.8232 182.337V181.689H59.566V182.337C58.6859 182.37 58.1005 182.549 57.8099 182.873C57.5277 183.188 57.3865 183.786 57.3865 184.666V187.916C56.8219 188.265 55.9086 188.614 54.6466 188.963C53.3846 189.311 51.9731 189.486 50.4122 189.486C47.581 189.486 45.3185 188.593 43.6247 186.808C42.0472 185.139 41.2584 183.047 41.2584 180.531ZM67.9839 189V188.352C68.7146 188.327 69.2335 188.228 69.5407 188.053C70.014 187.788 70.2506 187.29 70.2506 186.559V174.217C70.2506 173.47 70.0057 172.967 69.5158 172.71C69.2335 172.552 68.7229 172.453 67.9839 172.411V171.764H82.6798V176.907H82.0571C81.7333 175.263 81.1811 174.138 80.4007 173.532C79.6285 172.926 78.2171 172.623 76.1663 172.623C75.3858 172.623 74.8877 172.706 74.6718 172.872C74.4642 173.03 74.3604 173.349 74.3604 173.831V179.734C75.8134 179.751 76.7973 179.489 77.3121 178.95C77.8268 178.402 78.2212 177.405 78.4952 175.961H79.1428V184.579H78.4952C78.3125 183.126 77.9389 182.105 77.3743 181.515C76.8181 180.917 75.8134 180.618 74.3604 180.618V186.796C74.3604 187.335 74.4974 187.705 74.7714 187.904C75.0537 188.095 75.6266 188.19 76.4901 188.19C78.1174 188.19 79.4459 187.875 80.4754 187.244C81.5049 186.613 82.4182 185.43 83.2153 183.695H83.9252L82.8915 189H67.9839ZM92.393 188.352C93.2565 188.311 93.846 188.149 94.1615 187.867C94.477 187.584 94.6347 186.97 94.6347 186.023V174.753C94.6347 173.764 94.4479 173.121 94.0743 172.822C93.8252 172.623 93.2648 172.486 92.393 172.411V171.764H100.6C102.302 171.764 103.681 171.942 104.735 172.299C106.777 173.021 107.799 174.321 107.799 176.197C107.799 177.584 107.288 178.676 106.267 179.473C105.486 180.07 104.66 180.452 103.788 180.618L108.92 187.879C109.061 188.078 109.21 188.211 109.368 188.278C109.526 188.336 109.721 188.373 109.953 188.39V189H104.735L99.442 181.029H98.7695V186.023C98.7695 186.92 98.9189 187.526 99.2178 187.842C99.5167 188.149 100.115 188.319 101.011 188.352V189H92.393V188.352ZM98.7695 180.207C100.438 180.182 101.63 179.95 102.344 179.51C103.066 179.062 103.427 178.032 103.427 176.421C103.427 175.433 103.29 174.653 103.016 174.08C102.543 173.109 101.68 172.623 100.426 172.623C99.7451 172.623 99.2967 172.71 99.0808 172.884C98.8733 173.05 98.7695 173.329 98.7695 173.719V180.207ZM118.222 189V188.352C118.952 188.327 119.471 188.228 119.779 188.053C120.252 187.788 120.488 187.29 120.488 186.559V174.217C120.488 173.47 120.244 172.967 119.754 172.71C119.471 172.552 118.961 172.453 118.222 172.411V171.764H132.918V176.907H132.295C131.971 175.263 131.419 174.138 130.639 173.532C129.866 172.926 128.455 172.623 126.404 172.623C125.624 172.623 125.126 172.706 124.91 172.872C124.702 173.03 124.598 173.349 124.598 173.831V179.734C126.051 179.751 127.035 179.489 127.55 178.95C128.065 178.402 128.459 177.405 128.733 175.961H129.381V184.579H128.733C128.55 183.126 128.177 182.105 127.612 181.515C127.056 180.917 126.051 180.618 124.598 180.618V186.796C124.598 187.335 124.735 187.705 125.009 187.904C125.292 188.095 125.864 188.19 126.728 188.19C128.355 188.19 129.684 187.875 130.713 187.244C131.743 186.613 132.656 185.43 133.453 183.695H134.163L133.129 189H118.222Z" fill="#EBB42C"/>
</svg>
